<?xml version="1.0" standalone="no"?>
<!DOCTYPE svg PUBLIC "-//W3C//DTD SVG 20010904//EN"
 "http://www.w3.org/TR/2001/REC-SVG-20010904/DTD/svg10.dtd">
<svg version="1.0" xmlns="http://www.w3.org/2000/svg"
 width="192.000000pt" height="192.000000pt" viewBox="0 0 192.000000 192.000000"
 preserveAspectRatio="xMidYMid meet">

<g transform="translate(0.000000,192.000000) scale(0.100000,-0.100000)"
fill="#000000" stroke="none">
<path d="M230 1721 c-8 -6 -17 -8 -21 -5 -4 2 -12 -3 -19 -11 -15 -18 -12 -18
29 -4 17 6 31 15 31 20 0 11 -1 11 -20 0z"/>
<path d="M323 1723 c15 -2 39 -2 55 0 15 2 2 4 -28 4 -30 0 -43 -2 -27 -4z"/>
<path d="M410 1726 c0 -2 7 -6 15 -10 8 -3 15 -1 15 4 0 6 -7 10 -15 10 -8 0
-15 -2 -15 -4z"/>
<path d="M450 1726 c0 -2 11 -6 25 -8 14 -3 25 -1 25 3 0 5 -11 9 -25 9 -14 0
-25 -2 -25 -4z"/>
<path d="M510 1726 c0 -2 9 -6 20 -9 11 -3 18 -1 14 4 -5 9 -34 13 -34 5z"/>
<path d="M573 1723 c9 -2 23 -2 30 0 6 3 -1 5 -18 5 -16 0 -22 -2 -12 -5z"/>
<path d="M820 1695 c28 -30 45 -33 30 -5 -6 11 -15 18 -21 15 -5 -4 -9 -1 -9
4 0 6 -5 11 -12 11 -6 0 -1 -11 12 -25z"/>
<path d="M172 1658 c-11 -14 -9 -434 2 -445 3 -4 6 94 6 216 -1 122 2 226 5
231 9 14 -1 12 -13 -2z"/>
<path d="M860 1650 c0 -5 5 -10 10 -10 6 0 10 5 10 10 0 6 -4 10 -10 10 -5 0
-10 -4 -10 -10z"/>
<path d="M300 1585 c0 -8 5 -15 10 -15 7 0 7 -6 0 -19 -15 -29 -13 -33 12 -25
21 6 22 5 8 -11 -14 -17 -13 -18 13 -13 23 4 25 3 15 -9 -6 -8 -25 -21 -41
-29 -16 -9 -27 -18 -24 -20 3 -3 29 8 58 24 52 29 59 30 168 29 98 -2 117 1
135 17 11 10 31 25 44 34 43 28 13 24 -43 -7 -73 -40 -78 -39 -27 5 73 62 26
75 -70 19 -72 -42 -101 -42 -34 0 59 37 52 44 -11 11 -40 -22 -49 -24 -51 -11
-3 11 -10 14 -23 10 -15 -5 -17 -3 -12 11 5 13 2 15 -15 10 -12 -3 -31 -8 -41
-11 -11 -3 -22 -1 -26 5 -10 16 -45 12 -45 -5z"/>
<path d="M912 1551 c14 -23 35 -49 47 -57 27 -19 27 -7 0 22 -12 13 -27 33
-33 45 -6 12 -17 24 -25 27 -9 3 -5 -11 11 -37z"/>
<path d="M1515 1480 c-4 -6 10 -8 35 -6 56 6 64 16 12 16 -22 0 -44 -4 -47
-10z"/>
<path d="M1675 1470 c3 -5 12 -10 20 -10 20 0 37 -89 33 -170 -2 -38 0 -70 5
-70 5 0 7 50 6 112 -2 84 -7 117 -18 130 -16 19 -57 26 -46 8z"/>
<path d="M333 1438 c-42 -29 -59 -56 -27 -44 8 3 12 2 9 -4 -8 -14 -2 -13 45
6 34 14 40 21 40 45 0 36 -13 36 -67 -3z"/>
<path d="M810 1461 c-8 -6 -17 -8 -21 -5 -9 5 -59 -16 -59 -25 0 -3 4 -12 9
-20 8 -12 16 -10 50 12 23 15 41 32 41 37 0 12 -1 12 -20 1z"/>
<path d="M358 1372 c-16 -9 -28 -20 -28 -25 0 -9 56 19 65 33 9 15 -6 12 -37
-8z"/>
<path d="M763 1370 c-16 -18 -30 -20 -141 -20 l-124 0 -59 -36 c-32 -20 -59
-37 -59 -38 0 -1 9 -2 19 -2 11 0 17 4 15 8 -3 4 -1 8 5 8 26 0 16 -19 -24
-45 -25 -15 -42 -31 -39 -36 3 -5 -1 -6 -9 -3 -18 7 -28 -7 -18 -24 5 -8 27
-2 79 23 40 19 72 32 72 28 0 -3 7 0 15 7 8 7 15 9 15 5 0 -4 -10 -15 -22 -26
-19 -16 -20 -18 -4 -12 13 4 17 3 12 -5 -6 -10 51 11 111 40 33 16 37 5 8 -26
-32 -34 -31 -38 2 -21 15 8 30 12 35 9 4 -3 29 7 55 23 36 21 45 23 40 10 -5
-13 -2 -15 16 -8 45 17 79 22 72 11 -3 -5 0 -10 7 -10 7 -1 0 -12 -17 -25 -31
-26 -28 -33 6 -14 11 6 29 12 40 15 10 2 28 6 39 9 11 3 29 7 39 9 11 3 29 9
40 15 28 15 36 14 21 -4 -19 -23 -6 -28 28 -11 16 8 39 14 50 11 11 -2 28 3
39 10 32 25 39 15 8 -11 l-30 -26 41 21 c22 11 49 18 60 16 10 -2 23 -4 28 -4
6 -1 5 -6 -2 -13 -26 -26 -10 -27 34 -2 36 21 48 24 57 14 9 -10 9 -11 -3 -5
-8 5 -12 5 -8 0 4 -4 2 -15 -5 -24 -10 -14 -10 -14 3 -4 22 17 100 42 100 32
0 -5 7 -9 16 -9 14 0 15 -2 3 -17 -12 -15 -12 -16 3 -10 12 4 15 2 11 -9 -7
-19 0 -18 42 6 43 24 52 25 34 3 -13 -15 -12 -15 8 -5 17 9 22 9 27 -3 3 -9
18 -15 35 -15 23 0 29 4 25 15 -4 8 -10 15 -16 15 -5 0 -16 7 -24 15 -13 12
-12 15 6 25 27 14 26 29 -2 23 -23 -5 -23 -5 -3 11 19 16 18 16 -12 1 -37 -17
-55 -20 -33 -4 12 8 9 10 -12 6 -21 -3 -26 0 -23 15 4 16 1 17 -23 4 -15 -7
-40 -16 -57 -20 -30 -6 -30 -6 -9 11 12 10 30 24 40 31 11 7 4 5 -13 -3 -18
-9 -33 -13 -33 -9 0 4 -6 1 -13 -5 -8 -6 -31 -13 -53 -16 -21 -3 -45 -8 -53
-11 -10 -3 -8 2 5 17 l19 22 -42 -22 c-48 -24 -57 -26 -47 -9 5 8 0 9 -15 5
-19 -5 -20 -3 -10 9 10 13 8 14 -14 10 -15 -2 -37 -12 -49 -20 -26 -19 -47
-21 -30 -4 14 14 16 32 2 23 -7 -4 -7 3 0 19 l10 26 -53 -27 c-71 -38 -74 -39
-57 -18 13 15 9 15 -28 -4 -34 -17 -47 -19 -63 -11 -15 8 -24 8 -34 0 -8 -7
-20 -10 -27 -8 -7 3 1 12 20 22 17 9 32 18 32 19 0 6 -79 -1 -91 -8 -7 -5 -23
-9 -37 -11 -24 -2 -24 -2 7 30 17 18 28 35 25 39 -12 12 -23 8 -41 -13z"/>
<path d="M379 1333 c-13 -16 -12 -17 4 -4 9 7 17 15 17 17 0 8 -8 3 -21 -13z"/>
<path d="M799 1213 c-13 -15 -12 -15 9 -4 23 12 28 21 13 21 -5 0 -15 -7 -22
-17z"/>
<path d="M147 1182 c-22 -24 -21 -31 2 -25 11 3 21 13 24 24 6 24 -5 24 -26 1z"/>
<path d="M195 1180 c-4 -6 6 -10 24 -10 16 0 33 5 36 10 4 6 -6 10 -24 10 -16
0 -33 -4 -36 -10z"/>
<path d="M1647 1178 c-7 -5 4 -8 28 -7 22 1 54 -1 70 -5 29 -6 29 -5 10 9 -20
16 -85 18 -108 3z"/>
<path d="M1776 1039 c1 -59 -2 -132 -7 -161 -4 -29 -9 -118 -12 -198 -4 -103
-3 -125 3 -78 20 163 36 533 24 541 -5 3 -9 -42 -8 -104z"/>
<path d="M118 1124 c-5 -4 -8 -21 -8 -38 1 -26 2 -28 11 -13 11 19 8 63 -3 51z"/>
<path d="M247 1034 c-3 -17 0 -20 15 -16 14 3 17 0 11 -13 -5 -14 -3 -16 8
-10 8 5 5 -2 -6 -16 -11 -13 -13 -18 -5 -12 9 7 21 8 29 3 11 -6 7 -15 -19
-39 -28 -25 -30 -29 -12 -24 12 3 25 9 28 14 3 5 16 9 29 9 13 0 27 5 31 11 4
8 10 6 17 -7 8 -14 6 -20 -7 -28 -46 -28 -46 -34 2 -11 28 14 52 23 52 21 0
-2 -36 -27 -79 -55 -74 -47 -102 -71 -85 -71 3 0 40 18 81 41 41 23 77 38 80
35 4 -3 2 -6 -3 -6 -5 0 -20 -10 -34 -21 -21 -17 -16 -16 26 5 55 27 75 24 47
-6 -18 -20 -11 -23 18 -8 10 6 19 9 19 6 0 -3 -45 -35 -100 -71 -55 -36 -100
-68 -100 -72 0 -3 11 2 23 10 43 28 189 107 198 107 25 0 2 -24 -61 -61 -38
-23 -70 -43 -70 -46 0 -3 17 5 38 17 20 12 62 36 92 53 l55 30 -49 -47 c-27
-25 -54 -46 -59 -46 -5 0 -7 -7 -3 -15 3 -8 -3 -19 -12 -25 -9 -6 -12 -10 -7
-8 18 7 103 44 147 66 5 2 8 1 8 -2 0 -3 -66 -44 -146 -93 -81 -48 -141 -89
-134 -91 7 -3 15 -1 19 4 3 5 28 20 56 34 67 34 65 33 65 21 0 -5 -18 -20 -40
-32 -22 -12 -38 -24 -36 -27 2 -2 21 7 43 20 21 13 65 39 98 58 61 33 63 23 5
-27 -20 -18 -12 -16 34 9 103 55 51 14 -84 -67 -128 -76 -183 -117 -101 -75
23 11 45 18 50 16 5 -3 16 3 26 14 10 11 21 17 26 14 5 -2 42 14 84 36 41 23
75 39 75 36 0 -3 -43 -31 -95 -62 -53 -31 -93 -59 -90 -62 2 -3 -1 -12 -8 -20
-11 -13 -9 -14 10 -1 13 8 18 16 12 20 -7 4 -4 9 6 13 23 9 27 8 20 -5 -4 -6
2 -5 13 2 12 7 18 17 15 23 -3 5 -1 6 6 2 6 -4 34 6 61 23 28 17 52 31 55 31
2 0 27 13 55 30 27 16 50 26 50 22 0 -4 4 -1 8 6 5 7 21 15 37 18 16 3 33 7
39 10 15 6 -12 -12 -100 -69 -41 -27 -74 -52 -74 -57 0 -5 46 17 103 49 138
78 150 85 143 73 -3 -5 -84 -56 -178 -113 -95 -56 -182 -108 -193 -116 l-20
-14 20 4 c31 6 50 16 169 85 125 72 206 115 206 108 0 -3 -18 -15 -40 -27 -22
-13 -40 -26 -40 -30 0 -4 25 6 55 23 73 39 70 29 -5 -18 -33 -20 -60 -39 -60
-41 0 -5 148 74 167 90 7 5 13 7 13 3 0 -3 -34 -27 -75 -54 -41 -27 -72 -52
-68 -57 5 -4 2 -5 -4 -1 -7 4 -23 0 -35 -8 -14 -10 -17 -16 -8 -16 10 0 8 -5
-6 -16 -18 -15 -17 -15 6 -2 94 55 182 104 220 125 42 23 43 23 20 2 -14 -12
-24 -25 -23 -30 3 -11 -46 -44 -53 -36 -3 3 7 12 23 21 15 8 24 15 19 16 -10
0 -76 -39 -76 -46 0 -2 8 0 18 3 15 6 15 5 3 -10 -9 -12 1 -9 33 9 25 14 50
23 56 19 5 -3 19 -1 31 5 11 7 23 10 25 7 2 -2 -34 -28 -81 -57 -47 -29 -83
-55 -81 -58 3 -2 43 17 89 43 l83 47 0 48 c-1 78 3 80 194 81 l165 0 62 37
c34 19 60 39 57 43 -2 5 7 16 21 25 52 34 14 24 -67 -17 -126 -65 -155 -79
-163 -79 -13 0 36 34 112 79 40 24 78 50 85 59 9 11 0 9 -27 -7 -84 -49 -205
-113 -205 -108 0 3 38 29 85 57 47 28 85 54 85 56 0 3 -15 -4 -34 -15 -43 -27
-59 -27 -26 0 l25 20 -30 -15 c-16 -8 -37 -20 -45 -26 -12 -9 -10 -10 10 -4
14 3 22 3 18 -1 -5 -5 -22 -9 -40 -10 l-32 -2 30 24 c21 18 11 15 -40 -13
-112 -60 -67 -23 74 61 71 42 130 79 130 82 0 2 -9 -1 -20 -7 -11 -6 -26 -8
-32 -4 -7 5 -8 3 -3 -6 6 -10 4 -12 -9 -7 -11 4 -15 3 -11 -4 4 -6 1 -9 -6 -8
-18 3 -39 -7 -118 -53 -81 -47 -105 -50 -32 -3 70 44 76 52 21 26 -41 -20 -43
-20 -22 -2 28 24 29 35 1 20 -12 -6 -19 -7 -15 -1 3 5 65 45 138 88 72 43 145
92 162 108 17 16 27 26 21 24 -5 -3 -84 -48 -175 -100 -258 -148 -284 -162
-277 -151 6 9 109 75 188 119 33 18 35 26 5 14 -16 -6 -34 -14 -40 -18 -6 -3
-16 -7 -22 -8 -6 -1 -47 -23 -92 -49 -46 -27 -85 -45 -89 -42 -3 4 -11 -1 -18
-10 -10 -13 -13 -14 -20 -2 -5 8 -5 11 -1 8 4 -4 18 3 31 15 12 11 64 45 113
75 50 30 88 59 85 64 -3 5 0 7 8 5 14 -5 69 17 69 28 0 2 -9 0 -19 -6 -25 -13
-34 -13 -26 0 3 5 -12 0 -35 -12 -29 -16 -37 -24 -28 -31 9 -6 7 -7 -6 -3 -10
4 -24 2 -30 -2 -20 -16 -129 -73 -132 -69 -2 2 21 18 51 36 30 19 55 38 55 44
0 6 3 7 6 4 10 -10 44 12 44 28 0 8 4 15 8 15 4 0 23 14 42 30 l35 30 -60 -33
c-33 -18 -91 -51 -130 -74 -110 -63 -143 -79 -127 -61 18 23 -7 31 -31 10 -15
-14 -17 -14 -12 -1 3 8 46 39 95 68 100 59 122 80 34 31 -31 -17 -59 -28 -63
-24 -3 4 0 9 7 11 7 3 26 16 41 29 16 13 34 24 40 24 6 0 11 5 11 11 0 6 -26
-4 -57 -22 -205 -116 -266 -148 -243 -126 14 14 27 24 30 23 3 -1 19 11 35 27
l30 30 -52 -27 c-56 -28 -88 -36 -40 -10 16 9 26 18 23 21 -3 3 -26 -7 -51
-21 -25 -15 -45 -24 -45 -21 0 3 -14 -2 -31 -10 -53 -28 -42 -9 15 26 31 18
54 34 52 36 -2 2 -20 -6 -40 -18 -21 -12 -52 -23 -69 -25 -26 -3 -17 5 51 46
45 28 82 53 82 55 0 8 -52 -15 -112 -51 -33 -19 -63 -32 -66 -29 -4 3 0 10 8
15 21 14 3 12 -23 -2 -22 -12 -67 -20 -67 -12 0 2 21 18 47 34 50 32 51 40 2
14 -58 -29 -39 -7 28 35 92 58 37 46 -71 -15 -89 -50 -116 -52 -37 -3 64 40
67 51 4 13 -26 -15 -62 -28 -79 -30 -29 -2 -32 0 -23 15 6 9 25 26 42 39 18
12 25 22 17 22 -9 0 -24 -6 -35 -14 -25 -17 -85 -31 -85 -19 0 5 6 15 13 22
10 11 8 11 -13 0 -33 -17 -94 -20 -80 -4 8 9 1 12 -29 11 -32 0 -40 -5 -44
-22z m254 -324 c-22 -19 -41 -26 -41 -15 0 5 51 34 60 34 3 0 -6 -9 -19 -19z"/>
<path d="M115 998 c3 -29 7 -84 9 -123 9 -140 18 -230 23 -235 6 -5 -7 251
-12 261 -2 3 -5 35 -6 72 -1 37 -6 70 -11 73 -5 3 -6 -19 -3 -48z"/>
<path d="M1645 1040 c-3 -6 1 -7 9 -4 18 7 21 14 7 14 -6 0 -13 -4 -16 -10z"/>
<path d="M504 1005 c-10 -8 -14 -15 -8 -15 6 0 17 7 24 15 16 19 9 19 -16 0z"/>
<path d="M1090 922 c-45 -21 -45 -21 -37 -28 6 -6 77 33 77 42 0 5 1 6 -40
-14z"/>
<path d="M339 913 c-13 -15 -12 -15 9 -4 23 12 28 21 13 21 -5 0 -15 -7 -22
-17z"/>
<path d="M1404 824 c-18 -14 -18 -15 4 -4 12 6 22 13 22 15 0 8 -5 6 -26 -11z"/>
<path d="M1525 770 c-3 -6 1 -7 9 -4 18 7 21 14 7 14 -6 0 -13 -4 -16 -10z"/>
<path d="M140 614 c0 -8 5 -12 10 -9 6 4 8 11 5 16 -9 14 -15 11 -15 -7z"/>
<path d="M1585 580 c-3 -5 -2 -10 4 -10 5 0 13 5 16 10 3 6 2 10 -4 10 -5 0
-13 -4 -16 -10z"/>
<path d="M152 442 c4 -97 9 -147 18 -155 10 -10 11 -3 6 33 -4 25 -9 92 -13
150 -8 156 -16 137 -11 -28z"/>
<path d="M1180 525 c0 -8 5 -15 11 -15 6 0 8 -9 4 -20 -6 -19 2 -25 32 -21 18
2 25 -17 14 -38 -9 -17 -8 -18 12 -14 21 5 21 4 -3 -17 l-25 -21 31 15 c40 19
51 9 22 -21 -23 -25 -19 -29 14 -12 15 8 19 8 14 0 -5 -8 4 -10 28 -7 20 2 36
0 36 -5 0 -5 13 -9 28 -9 16 0 32 -3 36 -7 4 -4 20 -8 35 -9 20 -1 27 4 28 17
1 10 -1 18 -5 18 -21 -3 -31 3 -26 16 4 9 0 15 -9 15 -15 0 -18 45 -4 67 5 8
-4 7 -29 -3 -49 -20 -53 -11 -13 27 22 20 26 27 12 20 -26 -13 -36 -14 -29 -2
3 4 -12 5 -34 1 -21 -4 -45 -3 -52 1 -7 5 -8 9 -3 9 6 0 3 5 -6 10 -9 5 -30 8
-48 5 -17 -2 -31 1 -31 6 0 5 -9 9 -20 9 -11 0 -20 -7 -20 -15z m260 -89 c0
-2 -7 -7 -16 -10 -8 -3 -12 -2 -9 4 6 10 25 14 25 6z"/>
<path d="M1740 422 c0 -43 -7 -101 -15 -128 -14 -47 -13 -48 4 -27 10 12 19
41 20 70 6 126 6 155 -1 159 -5 3 -8 -30 -8 -74z"/>
<path d="M1000 469 c-17 -13 -18 -17 -5 -10 33 17 51 31 40 31 -5 0 -21 -10
-35 -21z"/>
<path d="M774 464 c-18 -14 -18 -15 4 -4 12 6 22 13 22 15 0 8 -5 6 -26 -11z"/>
<path d="M1581 461 c-1 -20 1 -21 14 -11 16 14 21 25 6 16 -5 -4 -12 0 -14 6
-3 7 -6 2 -6 -11z"/>
<path d="M900 460 c-9 -6 -10 -10 -3 -10 6 0 15 5 18 10 8 12 4 12 -15 0z"/>
<path d="M724 434 c-18 -14 -18 -15 4 -4 12 6 22 13 22 15 0 8 -5 6 -26 -11z"/>
<path d="M944 434 c-18 -14 -18 -15 4 -4 12 6 22 13 22 15 0 8 -5 6 -26 -11z"/>
<path d="M1035 409 c-77 -51 -89 -64 -44 -45 20 8 39 13 41 10 11 -10 78 39
78 57 0 25 -5 24 -75 -22z"/>
<path d="M1598 409 c-24 -13 -23 -46 1 -58 16 -9 19 -7 18 12 0 12 3 30 7 40
9 19 0 21 -26 6z"/>
<path d="M715 380 c-3 -6 1 -7 9 -4 18 7 21 14 7 14 -6 0 -13 -4 -16 -10z"/>
<path d="M474 364 c-18 -14 -18 -15 4 -4 12 6 22 13 22 15 0 8 -5 6 -26 -11z"/>
<path d="M172 253 c2 -10 10 -17 16 -15 7 1 12 -5 12 -13 0 -14 35 -15 281
-15 155 1 278 4 275 8 -4 3 -128 5 -275 5 l-268 -2 -13 25 c-15 28 -33 32 -28
7z"/>
<path d="M853 217 c-2 -4 34 -7 81 -6 47 1 84 5 81 7 -9 9 -156 8 -162 -1z"/>
<path d="M1535 220 c-42 -6 -33 -7 49 -8 55 -1 97 0 95 2 -10 9 -98 12 -144 6z"/>
<path d="M778 213 c6 -2 18 -2 25 0 6 3 1 5 -13 5 -14 0 -19 -2 -12 -5z"/>
<path d="M1058 213 c12 -2 30 -2 40 0 9 3 -1 5 -23 4 -22 0 -30 -2 -17 -4z"/>
<path d="M1143 213 c9 -2 25 -2 35 0 9 3 1 5 -18 5 -19 0 -27 -2 -17 -5z"/>
<path d="M1185 170 l-40 -8 47 1 c26 0 45 4 42 9 -3 4 -6 7 -7 7 -1 -1 -20 -5
-42 -9z"/>
<path d="M1252 164 c8 -7 138 -7 146 0 3 3 -30 6 -73 6 -43 0 -76 -3 -73 -6z"/>
<path d="M1418 163 c6 -2 18 -2 25 0 6 3 1 5 -13 5 -14 0 -19 -2 -12 -5z"/>
</g>
</svg>
